<svg preserveAspectRatio="none" overflow="visible" style="display: block;" width="25.7314" height="25.8871" viewBox="0 0 25.7314 25.8871" fill="none" xmlns="http://www.w3.org/2000/svg">
<g id="call-icon">
<path id="Vector" d="M24.9043 22.0213C24.7423 22.7478 24.3405 23.3986 23.7637 23.869C23.1335 24.5082 22.3826 25.0157 21.5546 25.3621C20.7266 25.7086 19.838 25.887 18.9405 25.8871H18.5211C16.6373 25.7848 14.7927 25.308 13.0953 24.4845H13.0824C12.6888 24.3013 12.2824 24.1181 11.8888 23.8948C9.90744 22.7839 8.09006 21.4029 6.48885 19.7916C4.41086 17.8398 2.70563 15.5259 1.45659 12.9632C0.792783 11.5588 0.349718 10.0603 0.143043 8.52065C-0.160878 6.90904 0.0219429 5.24344 0.668204 3.73613C1.0762 3.0561 1.5745 2.43453 2.14949 1.88839C2.40822 1.5958 2.72454 1.35976 3.07867 1.19502C3.43279 1.03028 3.8171 0.940388 4.20756 0.930968C4.63221 0.977896 5.0433 1.10871 5.41698 1.31582C5.79066 1.52292 6.11947 1.80219 6.38433 2.13742C6.97401 2.77871 7.69401 3.4471 8.28498 4.06387L9.09788 4.86387C9.5753 5.2871 9.87078 5.87807 9.92369 6.51548C9.92369 7.1 9.7082 7.66387 9.31982 8.10129C9.06829 8.40721 8.80127 8.70007 8.51982 8.97871L8.25788 9.25355C8.10562 9.39548 7.98949 9.57097 7.91724 9.76581C7.85272 9.95763 7.82691 10.1542 7.83982 10.3555C8.04756 10.9116 8.37401 11.4174 8.79466 11.8368C9.45143 12.7271 10.1069 13.5013 10.7753 14.34C11.9843 15.7435 13.419 16.9354 15.0205 17.8665C15.1843 17.9865 15.3727 18.0665 15.5727 18.1013C15.7456 18.1142 15.9211 18.0884 16.0837 18.0239C16.5418 17.7542 16.9482 17.4084 17.2888 17.0006C17.7469 16.4397 18.4046 16.078 19.1237 15.9916C19.8157 16.0011 20.4758 16.2841 20.9598 16.7787C21.2218 17.0006 21.5095 17.3026 21.7856 17.5916L22.1779 17.9968L22.5843 18.3903L23.2798 19.0974C23.6944 19.4656 24.0833 19.8591 24.4463 20.2781C24.8101 20.7813 24.974 21.4045 24.9043 22.0213ZM20.1998 13.0419C19.9399 13.0392 19.6914 12.9348 19.5075 12.751C19.3237 12.5672 19.2193 12.3186 19.2166 12.0587C19.218 11.3165 19.0728 10.5813 18.7894 9.89531C18.5059 9.20932 18.0899 8.58604 17.5651 8.06121C17.0402 7.53638 16.4169 7.12032 15.731 6.83691C15.045 6.55351 14.3098 6.40832 13.5676 6.40968C13.3068 6.40968 13.0567 6.30609 12.8723 6.1217C12.6879 5.93731 12.5843 5.68722 12.5843 5.42645C12.5843 5.16568 12.6879 4.9156 12.8723 4.73121C13.0567 4.54682 13.3068 4.44323 13.5676 4.44323C14.5681 4.4417 15.559 4.63763 16.4837 5.01981C17.4083 5.40198 18.2485 5.96287 18.9559 6.67034C19.6634 7.37781 20.2243 8.21794 20.6065 9.14258C20.9886 10.0672 21.1846 11.0582 21.183 12.0587C21.1834 12.1879 21.1582 12.3159 21.1089 12.4354C21.0596 12.5548 20.9872 12.6633 20.8958 12.7547C20.8045 12.8461 20.6959 12.9185 20.5765 12.9678C20.457 13.0171 20.329 13.0423 20.1998 13.0419Z" fill="#4C5C3C"/>
<path id="Vector_2" d="M24.7482 12.5826C24.4885 12.5799 24.2402 12.4756 24.0564 12.2921C23.8726 12.1086 23.768 11.8604 23.765 11.6006C23.767 10.336 23.5197 9.08337 23.0371 7.91442C22.5545 6.74548 21.8461 5.68316 20.9526 4.78827C20.059 3.89337 18.9977 3.18345 17.8295 2.69914C16.6612 2.21483 15.409 1.96564 14.1443 1.96581C14.0123 1.97059 13.8807 1.94872 13.7573 1.9015C13.6339 1.85427 13.5213 1.78266 13.4262 1.69095C13.3311 1.59924 13.2554 1.4893 13.2038 1.3677C13.1521 1.2461 13.1255 1.11534 13.1255 0.983226C13.1255 0.851109 13.1521 0.720347 13.2038 0.59875C13.2554 0.477153 13.3311 0.367215 13.4262 0.275501C13.5213 0.183788 13.6339 0.112181 13.7573 0.0649568C13.8807 0.0177327 14.0123 -0.00414011 14.1443 0.000645194C15.6671 0.00064425 17.1749 0.30078 18.5815 0.883893C19.9882 1.46701 21.2661 2.32166 22.3422 3.39899C23.4183 4.47632 24.2716 5.75519 24.8531 7.16249C25.4347 8.56979 25.7331 10.0779 25.7314 11.6006C25.7318 11.7299 25.7066 11.8579 25.6573 11.9773C25.608 12.0968 25.5356 12.2053 25.4442 12.2966C25.3528 12.388 25.2443 12.4604 25.1249 12.5097C25.0054 12.559 24.8774 12.5829 24.7482 12.5826Z" fill="#4C5C3C"/>
</g>
</svg>
